<?xml version="1.0" encoding="UTF-8"?>
<svg id="Layer_2" data-name="Layer 2" xmlns="http://www.w3.org/2000/svg" viewBox="0 0 426.2 273.33">
  <defs>
    <style>
      .cls-1 {
        fill: none;
        stroke: #000;
        stroke-miterlimit: 10;
      }
    </style>
  </defs>
  <path class="cls-1" d="M196.86,43.97c16.47-5.52,40.95-9.49,69.25-10.92,9.34-.48,14.84,10.59,8.56,17.51-.2.24-.43.46-.65.69-8.36,8.36-8.45,21.82-.2,30.07,8.25,8.26,21.71,8.17,30.07-.2,8.38-8.36,8.47-21.82.22-30.07l-.15-.15c-6.67-6.83-1.39-18.37,8.15-17.9,28.66,1.41,53.47,5.42,70.11,10.98-5.57,16.64-9.58,41.45-10.98,70.11-.46,9.55,11.07,14.82,17.88,8.15.06-.06.11-.09.15-.15,8.26-8.25,21.73-8.15,30.09.2,8.36,8.38,8.45,21.84.2,30.09-8.25,8.25-21.71,8.15-30.07-.2-.22-.22-.46-.45-.69-.65-6.93-6.28-18-.78-17.53,8.56,1.45,28.3,5.42,52.78,10.94,69.25-16.49,5.52-40.97,9.49-69.25,10.94-9.34.46-14.86-10.6-8.58-17.53.2-.22.43-.46.65-.69,8.38-8.36,8.47-21.82.2-30.07-8.25-8.25-21.71-8.15-30.07.2s-8.45,21.82-.2,30.09l.15.15c6.67,6.82,1.37,18.35-8.15,17.88-28.66-1.39-53.47-5.4-70.11-10.98-16.66-5.55-41.45-9.56-70.11-10.96-9.55-.46-14.84,11.05-8.15,17.88.04.06.09.09.15.15,8.25,8.25,8.15,21.71-.22,30.07-8.36,8.38-21.82,8.47-30.07.22-8.25-8.26-8.15-21.73.2-30.09.22-.22.45-.45.65-.69,6.28-6.93.78-18-8.56-17.51-28.3,1.43-52.78,5.42-69.27,10.92C5.97,212.87,1.98,188.39.55,160.09c-.46-9.34,10.59-14.84,17.51-8.56.24.2.46.43.69.65,8.38,8.36,21.84,8.45,30.09.2,8.25-8.25,8.15-21.71-.2-30.09-8.38-8.36-21.84-8.45-30.09-.2l-.15.15c-6.83,6.67-18.35,1.39-17.88-8.15,1.39-28.66,5.4-53.47,10.96-70.11,16.66,5.57,41.45,9.56,70.13,10.98,9.53.46,14.82-11.07,8.13-17.9-.04-.04-.09-.09-.13-.15-8.26-8.25-8.17-21.71.2-30.07,8.36-8.36,21.82-8.45,30.07-.2,8.25,8.25,8.15,21.71-.2,30.07-.22.22-.45.46-.65.69-6.28,6.93-.78,18,8.56,17.51,28.3-1.43,52.78-5.4,69.27-10.92Z"/>
</svg>