<?xml version="1.0" encoding="UTF-8"?>
<svg id="Individuals" xmlns="http://www.w3.org/2000/svg" viewBox="0 0 111.89 146.89">
  <defs>
    <style>
      .cls-1 {
        fill: none;
        stroke: #000;
        stroke-miterlimit: 10;
        stroke-width: .25px;
      }
    </style>
  </defs>
  <path class="cls-1" d="M6.04,23.54C3.04,32.5.88,45.86.13,61.29c-.25,5.13,5.96,7.98,9.63,4.39.03-.03.05-.05.08-.08,4.44-4.44,11.69-4.39,16.19.11,4.5,4.5,4.55,11.75.11,16.19-4.44,4.44-11.69,4.39-16.2-.11-.12-.12-.24-.24-.37-.35-3.73-3.38-9.69-.42-9.43,4.61.77,15.24,2.92,28.42,5.88,37.29,8.87-2.97,22.06-5.11,37.29-5.88,5.03-.26,7.99,5.7,4.61,9.43-.11.12-.23.25-.35.37-4.5,4.5-4.55,11.75-.11,16.2,4.44,4.44,11.69,4.39,16.19-.11,4.5-4.5,4.55-11.75.11-16.19-.03-.03-.05-.05-.08-.08-3.59-3.68-.74-9.88,4.39-9.63,15.43.75,28.79,2.91,37.75,5.91,3-8.96,5.15-22.32,5.91-37.75.25-5.13-5.96-7.98-9.63-4.39-.03.03-.05.05-.08.08-4.44,4.44-11.69,4.39-16.19-.11-4.5-4.5-4.55-11.75-.11-16.19,4.44-4.44,11.69-4.39,16.2.11.12.12.24.24.37.35,3.73,3.38,9.69.42,9.43-4.61-.77-15.24-2.92-28.42-5.88-37.29-8.87,2.97-22.06,5.11-37.29,5.88-5.03.26-7.99-5.7-4.61-9.43.11-.12.23-.25.35-.37,4.5-4.5,4.55-11.75.11-16.2-4.44-4.44-11.69-4.39-16.19.11-4.5,4.5-4.55,11.75-.11,16.19.03.03.05.05.08.08,3.59,3.68.74,9.88-4.39,9.63-15.43-.75-28.79-2.91-37.75-5.91Z"/>
</svg>