<?xml version="1.0" encoding="UTF-8"?>
<svg id="Images" xmlns="http://www.w3.org/2000/svg" viewBox="0 0 458.7 458.7">
  <defs>
    <style>
      .cls-1 {
        fill: none;
        stroke: #01030f;
        stroke-miterlimit: 10;
      }
    </style>
  </defs>
  <path class="cls-1" d="M43.97,229.36c-5.5-16.49-9.49-40.97-10.92-69.25-.46-9.34,10.59-14.86,17.53-8.58.22.2.45.43.67.65,8.38,8.38,21.84,8.47,30.09.2,8.25-8.25,8.15-21.71-.2-30.07-8.38-8.36-21.84-8.45-30.09-.2-.06.04-.09.09-.15.15-6.83,6.67-18.35,1.37-17.88-8.15,1.39-28.66,5.4-53.47,10.96-70.11,16.66,5.55,41.45,9.56,70.13,10.96,9.53.46,14.82-11.05,8.15-17.88-.06-.06-.11-.09-.15-.15-8.26-8.25-8.17-21.71.2-30.09,8.36-8.36,21.82-8.45,30.07-.2,8.25,8.25,8.15,21.71-.2,30.09-.22.22-.45.45-.65.69-6.28,6.93-.76,18,8.56,17.51,28.3-1.43,52.78-5.42,69.27-10.92,16.47-5.52,40.95-9.49,69.25-10.94,9.34-.46,14.84,10.59,8.56,17.53-.2.22-.43.45-.65.67-8.36,8.38-8.45,21.84-.2,30.09,8.25,8.25,21.71,8.15,30.09-.2,8.36-8.36,8.45-21.84.2-30.09-.06-.04-.11-.09-.15-.15-6.67-6.82-1.39-18.35,8.15-17.88,28.66,1.39,53.47,5.4,70.11,10.98-5.57,16.64-9.58,41.45-10.98,70.11-.46,9.53,11.07,14.82,17.88,8.15l.15-.15c8.26-8.25,21.73-8.15,30.09.2,8.36,8.36,8.45,21.82.2,30.07-8.25,8.26-21.71,8.17-30.07-.2-.22-.22-.46-.45-.69-.65-6.93-6.28-18-.76-17.53,8.58,1.45,28.29,5.42,52.76,10.94,69.25,5.5,16.47,9.49,40.95,10.92,69.25.48,9.34-10.59,14.84-17.51,8.56-.24-.2-.46-.43-.69-.65-8.36-8.36-21.82-8.45-30.09-.2-8.25,8.25-8.15,21.71.22,30.09,8.36,8.36,21.82,8.45,30.07.2.06-.06.11-.09.15-.15,6.83-6.67,18.37-1.39,17.88,8.15-1.39,28.66-5.4,53.47-10.96,70.11-16.64-5.57-41.45-9.56-70.11-10.98-9.55-.46-14.82,11.07-8.15,17.9l.15.15c8.25,8.25,8.15,21.71-.2,30.07-8.38,8.36-21.84,8.45-30.09.2-8.25-8.25-8.15-21.71.2-30.07.22-.22.45-.46.65-.69,6.28-6.93.78-18-8.56-17.51-28.3,1.43-52.78,5.4-69.25,10.92-16.49,5.52-40.97,9.49-69.27,10.92-9.32.48-14.84-10.59-8.56-17.51.2-.24.43-.46.65-.69,8.36-8.36,8.45-21.82.2-30.07-8.25-8.26-21.71-8.17-30.07.2-8.38,8.36-8.47,21.82-.2,30.07.04.06.09.11.15.15,6.67,6.83,1.37,18.37-8.15,17.9-28.68-1.41-53.47-5.42-70.13-10.98,5.57-16.64,9.58-41.45,10.98-70.11.46-9.55-11.05-14.82-17.88-8.15-.06.06-.11.09-.15.15-8.25,8.25-21.71,8.15-30.09-.2-8.36-8.38-8.45-21.84-.2-30.09,8.25-8.25,21.71-8.15,30.09.2.22.22.45.45.67.65,6.95,6.28,18,.78,17.53-8.56-1.43-28.3-5.42-52.78-10.94-69.25Z"/>
</svg>